<svg width="118" height="40" viewBox="0 0 118 40" fill="none" xmlns="http://www.w3.org/2000/svg">
<path d="M0 0H100V40H0V0Z" fill="white"/>
<path d="M9.75 3.75H20.75L27.25 26.25H27.5L32 3.75H40.25L33.25 36.25H22.5L15.75 13.75H15.5L11 36.25H2.75L9.75 3.75ZM43.25 3.75H52.25L49.75 16H59.75L62.5 3.75H71.25L64.5 36.25H55.75L58.5 22.25H48.25L45.25 36.25H36.75L43.25 3.75ZM94.25 11C92.5 10.25 90.25 9.5 87 9.5C83.5 9.5 80.75 10 80.75 12.75C80.75 17.25 93.5 15.75 93.5 25.5C93.5 34.5 85.25 36.75 77.5 36.75C74.25 36.75 70.25 36 67.5 35L69.5 28.25C71.25 29.25 74.75 30 77.5 30C80.25 30 84.5 29.5 84.5 26.25C84.5 21 71.75 23 71.75 13.75C71.75 5.25 79 2.75 86.25 2.75C90.25 2.75 94 3.25 96.25 4.25" fill="#005EB8"/>
<path d="M107.757 0.0672728H104.995L107.892 6.53364L102.79 13H105.551L109.264 8.16707L111.369 13H114.122L111.133 6.53364L116.244 0.0672728H113.491L109.778 5.10228L107.757 0.0672728Z" fill="white"/>
</svg>
